<svg width="48" height="48" viewBox="0 0 48 48" fill="none" xmlns="http://www.w3.org/2000/svg">
<circle cx="24" cy="24" r="24" fill="#242424"/>
<path d="M17.5204 18.8572H16.0804C15.6814 18.8572 15.3604 19.2011 15.3604 19.6286V22.9715H14.6404C14.5084 22.9715 14.4004 23.0872 14.4004 23.2286V24.7715C14.4004 24.9129 14.5084 25.0286 14.6404 25.0286H15.3604V28.3715C15.3604 28.799 15.6814 29.1429 16.0804 29.1429H17.5204C17.9194 29.1429 18.2404 28.799 18.2404 28.3715V19.6286C18.2404 19.2011 17.9194 18.8572 17.5204 18.8572ZM33.3604 22.9715H32.6404V19.6286C32.6404 19.2011 32.3194 18.8572 31.9204 18.8572H30.4804C30.0814 18.8572 29.7604 19.2011 29.7604 19.6286V28.3715C29.7604 28.799 30.0814 29.1429 30.4804 29.1429H31.9204C32.3194 29.1429 32.6404 28.799 32.6404 28.3715V25.0286H33.3604C33.4924 25.0286 33.6004 24.9129 33.6004 24.7715V23.2286C33.6004 23.0872 33.4924 22.9715 33.3604 22.9715ZM28.0804 16.8H26.6404C26.2414 16.8 25.9204 17.144 25.9204 17.5715V22.9715H22.0804V17.5715C22.0804 17.144 21.7594 16.8 21.3604 16.8H19.9204C19.5214 16.8 19.2004 17.144 19.2004 17.5715V30.4286C19.2004 30.8561 19.5214 31.2 19.9204 31.2H21.3604C21.7594 31.2 22.0804 30.8561 22.0804 30.4286V25.0286H25.9204V30.4286C25.9204 30.8561 26.2414 31.2 26.6404 31.2H28.0804C28.4794 31.2 28.8004 30.8561 28.8004 30.4286V17.5715C28.8004 17.144 28.4794 16.8 28.0804 16.8Z" fill="#F4F4F4"/>
</svg>
